<?xml version="1.0" encoding="UTF-8" standalone="no"?>
<svg
   version="1.0"
   width="320.000000pt"
   height="320.000000pt"
   viewBox="0 0 320.000000 320.000000"
   preserveAspectRatio="xMidYMid meet"
   id="svg64"
   sodipodi:docname="corazoncanino-imagotipo.svg"
   inkscape:version="1.1.2 (0a00cf5339, 2022-02-04)"
   xmlns:inkscape="http://www.inkscape.org/namespaces/inkscape"
   xmlns:sodipodi="http://sodipodi.sourceforge.net/DTD/sodipodi-0.dtd"
   xmlns="http://www.w3.org/2000/svg"
   xmlns:svg="http://www.w3.org/2000/svg">
  <defs
     id="defs68" />
  <sodipodi:namedview
     id="namedview66"
     pagecolor="#ffffff"
     bordercolor="#666666"
     borderopacity="1.0"
     inkscape:pageshadow="2"
     inkscape:pageopacity="0.0"
     inkscape:pagecheckerboard="0"
     inkscape:document-units="pt"
     showgrid="false"
     inkscape:zoom="1.6851563"
     inkscape:cx="213.63004"
     inkscape:cy="213.63004"
     inkscape:window-width="1920"
     inkscape:window-height="1058"
     inkscape:window-x="0"
     inkscape:window-y="39"
     inkscape:window-maximized="1"
     inkscape:current-layer="svg64" />
  <metadata
     id="metadata2">
Created by potrace 1.16, written by Peter Selinger 2001-2019
</metadata>
  <g
     transform="matrix(0.12766943,0,0,-0.12766943,-46.050276,407.85742)"
     fill="#fffd"
     stroke="none"
     id="g62"
     style="">
    <path
       d="M 1425,3027 C 1193,2707 1070,2574 925,2486 767,2391 621,2248 560,2130 c -12,-24 -11,-24 19,4 38,36 38,32 6,-26 -41,-73 -65,-189 -72,-338 -3,-81 -1,-149 5,-170 l 10,-35 1,41 c 1,60 37,167 63,190 21,19 21,19 14,-1 -35,-92 -27,-304 20,-482 29,-112 40,-132 29,-53 -15,105 -8,279 14,363 47,180 148,306 306,382 96,47 249,85 266,68 17,-17 -1,-59 -39,-98 l -37,-37 30,7 c 96,23 168,84 181,152 4,21 9,42 11,46 10,16 33,-17 33,-47 l 1,-31 29,35 c 40,45 41,105 5,148 l -25,30 42,24 c 23,12 57,42 75,66 32,43 43,69 23,57 -6,-3 -19,-3 -31,0 -19,6 -17,10 20,50 25,27 46,63 55,96 9,29 16,54 16,57 0,2 -14,-8 -31,-22 -44,-37 -51,-32 -28,19 27,60 38,173 29,276 -8,87 -46,266 -59,273 -3,2 -56,-64 -116,-147 z m 115,-133 c 0,-112 -18,-233 -51,-339 -26,-85 -79,-205 -90,-205 -4,0 -15,7 -24,16 -22,23 -37,6 -39,-44 -1,-42 -5,-43 -43,-9 l -23,20 v -28 c 0,-28 -1,-28 -17,-12 -28,28 -24,157 6,222 l 24,50 7,-34 c 5,-18 15,-40 24,-49 14,-15 19,-13 50,17 85,82 155,298 156,476 0,36 3,46 10,35 5,-8 10,-61 10,-116 z M 917,2322 c -26,-26 -47,-51 -47,-55 0,-4 17,-7 38,-8 h 37 l -25,-17 c -89,-60 -161,-151 -197,-247 -12,-33 -22,-51 -22,-40 -1,57 60,185 117,248 14,15 21,27 14,27 -6,0 -14,-4 -17,-10 -15,-24 -24,-7 -11,19 17,32 68,83 112,111 50,32 50,22 1,-28 z"
       id="path4"
       style="" />
    <path
       d="m 1870,2871 c 0,-5 -18,-36 -41,-69 -27,-41 -58,-72 -94,-95 l -54,-33 72,-23 c 207,-66 331,-173 386,-334 11,-30 31,-113 45,-184 16,-77 38,-152 55,-188 39,-79 122,-179 205,-245 84,-66 93,-87 64,-143 -30,-59 -30,-128 1,-160 12,-14 36,-32 53,-40 l 29,-14 -33,-33 c -74,-74 -187,-105 -360,-98 -65,3 -118,4 -118,2 0,-9 131,-28 230,-33 l 115,-7 -45,-14 c -67,-21 -218,-17 -323,9 -103,25 -114,26 -68,5 77,-33 197,-57 291,-57 114,-1 170,19 240,87 193,189 230,236 230,292 0,42 -50,87 -221,201 -181,120 -245,180 -265,249 -18,61 -9,109 30,166 l 23,34 -38,32 c -30,26 -40,43 -49,86 -6,29 -24,74 -40,100 -17,26 -30,48 -30,49 0,1 12,3 26,4 37,2 48,16 35,42 -7,12 -8,21 -3,21 4,0 18,9 30,20 26,24 30,55 7,46 -21,-8 -31,20 -15,39 17,20 39,19 95,-6 60,-27 129,-28 175,-4 35,18 35,18 10,25 -73,20 -122,65 -166,151 -36,71 -58,82 -154,77 -78,-5 -80,-4 -80,18 0,13 -4,26 -10,29 -5,3 -10,2 -10,-4 0,-11 -71,-46 -114,-57 -19,-5 -27,-3 -22,4 3,6 2,22 -4,37 l -10,27 -22,-27 -21,-27 -14,26 c -14,26 -23,33 -23,17 z m 765,-1451 c -26,-29 -53,-34 -80,-16 -30,20 -34,42 -5,24 17,-11 26,-10 58,9 40,23 55,14 27,-17 z"
       id="path6"
       style="" />
    <path
       d="m 1951,2465 c 67,-73 112,-138 145,-210 14,-30 27,-55 29,-55 4,0 -20,87 -36,127 -5,13 -12,23 -17,23 -5,0 -21,23 -36,50 -15,28 -31,48 -36,45 -5,-3 -11,-1 -14,4 -4,5 -25,24 -49,42 -40,32 -39,30 14,-26 z"
       id="path8"
       style="" />
    <path
       d="m 2006,2156 c 17,-8 34,-22 38,-31 3,-10 9,-15 13,-12 3,4 -2,18 -11,32 -11,17 -25,25 -44,25 l -27,-1 z"
       id="path10"
       style="" />
    <path
       d="m 1513,2037 c -32,-24 -92,-81 -133,-126 -41,-46 -88,-89 -104,-96 -26,-11 -22,-12 55,-18 46,-3 104,-12 128,-21 24,-9 45,-15 47,-14 1,2 -1,19 -5,38 -4,19 -3,55 1,80 8,46 65,150 81,150 12,0 0,-110 -20,-178 -9,-32 -12,-68 -8,-88 8,-46 57,-100 119,-131 28,-14 59,-32 69,-41 9,-8 20,-13 23,-9 3,3 -28,28 -69,56 -120,81 -134,110 -101,216 15,50 21,195 9,215 -11,18 -32,11 -92,-33 z"
       id="path12"
       style="" />
    <path
       d="m 1851,1964 c -50,-25 -91,-48 -91,-50 0,-3 15,-2 33,1 25,5 45,0 82,-19 58,-31 75,-32 108,-6 14,11 30,20 36,20 14,0 14,21 0,57 -21,57 -50,56 -168,-3 z m 119,-4 c 0,-5 -4,-10 -10,-10 -5,0 -10,5 -10,10 0,6 5,10 10,10 6,0 10,-4 10,-10 z m -19,-57 c 10,3 17,1 13,-4 -9,-15 -51,-10 -65,8 -13,15 -12,15 10,4 12,-7 32,-11 42,-8 z"
       id="path14"
       style="" />
    <path
       d="m 980,1924 c -60,-51 -137,-249 -127,-327 5,-38 44,-107 61,-107 5,0 4,6 -2,13 -6,7 -14,53 -18,102 -5,79 -3,97 17,150 41,109 95,174 133,159 25,-10 47,-59 62,-143 7,-42 13,-83 14,-91 0,-8 10,4 21,28 23,45 49,59 97,48 26,-6 26,-6 7,9 -11,9 -30,18 -42,21 -12,3 -37,31 -57,64 -35,57 -87,100 -119,100 -8,0 -30,-12 -47,-26 z"
       id="path16"
       style="" />
    <path
       d="m 996,1687 c 14,-30 15,-39 4,-52 -7,-8 -21,-15 -32,-15 -17,0 -19,-4 -12,-32 3,-18 12,-37 19,-43 8,-5 15,-19 17,-30 4,-19 4,-19 16,3 9,15 10,28 3,40 -7,14 -5,23 10,35 10,9 19,24 19,32 0,21 -25,68 -45,85 -15,12 -15,10 1,-23 z"
       id="path18"
       style="" />
    <path
       d="m 785,1531 c -51,-76 -77,-173 -76,-285 0,-186 49,-314 157,-415 65,-61 169,-113 249,-125 35,-6 33,-4 -21,17 -85,33 -145,69 -196,121 -42,41 -97,132 -113,186 -8,24 -7,24 16,7 13,-9 42,-27 64,-38 l 40,-22 -48,43 c -26,23 -59,64 -72,91 -54,105 -52,270 4,394 17,36 28,65 26,65 -3,0 -16,-18 -30,-39 z"
       id="path20"
       style="" />
    <path
       d="m 1728,1503 c -43,-49 -31,-91 54,-182 l 61,-65 -29,-10 c -41,-13 -72,-56 -40,-56 7,0 22,-12 31,-27 16,-24 19,-25 30,-9 24,32 28,85 9,114 -10,15 -18,50 -19,85 -2,32 -7,63 -12,68 -5,5 -7,-7 -5,-29 1,-20 -2,-44 -7,-52 -9,-13 -13,-12 -32,6 -20,21 -20,23 -4,48 19,29 10,36 -11,9 -12,-16 -15,-16 -24,-3 -12,19 -6,86 10,106 18,20 6,17 -12,-3 z"
       id="path22"
       style="" />
    <path
       d="m 860,1474 c 0,-11 5,-25 11,-31 9,-9 6,-19 -10,-39 -26,-34 -27,-66 -1,-89 11,-10 20,-13 20,-7 0,6 -4,14 -10,17 -19,12 -10,36 31,80 41,44 41,45 16,45 -15,0 -32,9 -41,22 -15,22 -16,22 -16,2 z"
       id="path24"
       style="" />
    <path
       d="m 1429,1460 c -41,-22 -69,-50 -49,-50 7,0 30,-18 52,-40 53,-52 81,-59 120,-30 25,18 35,21 49,12 17,-11 17,-9 4,21 -21,50 -73,107 -98,107 -21,-1 -20,-2 5,-15 46,-25 50,-93 7,-116 -55,-29 -109,79 -57,115 31,22 11,19 -33,-4 z"
       id="path26"
       style="" />
    <path
       d="m 1481,1435 c 0,-11 4,-29 9,-40 l 9,-20 v 20 c 0,11 -4,29 -9,40 l -9,20 z"
       id="path28"
       style="" />
    <path
       d="m 2280,1440 c 0,-5 7,-10 16,-10 8,0 12,5 9,10 -3,6 -10,10 -16,10 -5,0 -9,-4 -9,-10 z"
       id="path30"
       style="" />
    <path
       d="m 2335,1430 c -3,-5 -1,-10 4,-10 6,0 11,5 11,10 0,6 -2,10 -4,10 -3,0 -8,-4 -11,-10 z"
       id="path32"
       style="" />
    <path
       d="m 2230,1390 c 0,-5 5,-10 10,-10 6,0 10,5 10,10 0,6 -4,10 -10,10 -5,0 -10,-4 -10,-10 z"
       id="path34"
       style="" />
    <path
       d="m 2286,1391 c -4,-5 -2,-12 3,-15 5,-4 12,-2 15,3 4,5 2,12 -3,15 -5,4 -12,2 -15,-3 z"
       id="path36"
       style="" />
    <path
       d="m 2340,1380 c 0,-5 5,-10 10,-10 6,0 10,5 10,10 0,6 -4,10 -10,10 -5,0 -10,-4 -10,-10 z"
       id="path38"
       style="" />
    <path
       d="m 2237,1344 c -8,-8 1,-24 14,-24 5,0 9,7 9,15 0,15 -12,20 -23,9 z"
       id="path40"
       style="" />
    <path
       d="m 2290,1335 c 0,-9 5,-15 11,-13 6,2 11,8 11,13 0,5 -5,11 -11,13 -6,2 -11,-4 -11,-13 z"
       id="path42"
       style="" />
    <path
       d="m 2350,1340 c 0,-5 5,-10 11,-10 5,0 7,5 4,10 -3,6 -8,10 -11,10 -2,0 -4,-4 -4,-10 z"
       id="path44"
       style="" />
    <path
       d="m 1640,1109 c 0,-5 5,-7 10,-4 6,3 10,8 10,11 0,2 -4,4 -10,4 -5,0 -10,-5 -10,-11 z"
       id="path46"
       style="" />
    <path
       d="m 1842,1093 c -30,-70 -80,-146 -107,-163 -34,-23 -100,-26 -173,-9 -81,19 -80,18 -44,50 18,16 29,29 25,29 -3,0 4,12 18,27 23,26 23,26 -12,-2 -20,-17 -43,-42 -52,-57 -10,-17 -25,-28 -39,-29 -64,-2 -124,-21 -163,-53 -15,-13 -10,-12 21,3 42,20 144,39 144,27 0,-4 -5,-17 -11,-29 -9,-18 -6,-17 13,5 l 23,26 81,-20 c 130,-34 197,-8 241,90 14,31 31,64 38,72 15,18 26,60 16,60 -4,0 -12,-12 -19,-27 z"
       id="path48"
       style="" />
    <path
       d="m 1595,1100 c -3,-5 -1,-10 4,-10 6,0 11,5 11,10 0,6 -2,10 -4,10 -3,0 -8,-4 -11,-10 z"
       id="path50"
       style="" />
    <path
       d="m 1940,1079 c 19,-12 43,-28 53,-37 9,-8 17,-12 17,-9 0,10 -81,67 -94,67 -6,0 5,-10 24,-21 z"
       id="path52"
       style="" />
    <path
       d="m 1794,1076 c -8,-22 -98,-66 -149,-73 -33,-4 -46,-3 -42,4 5,7 -2,7 -18,0 -14,-7 -25,-16 -25,-21 0,-16 137,0 176,21 38,20 96,83 75,83 -6,0 -14,-6 -17,-14 z"
       id="path54"
       style="" />
    <path
       d="m 990,1074 c 0,-23 47,-80 85,-101 42,-24 60,-29 51,-14 -4,5 13,7 36,5 42,-5 42,-4 -15,15 -55,18 -118,58 -144,91 -7,8 -13,10 -13,4 z"
       id="path56"
       style="" />
    <path
       d="m 1433,1024 -28,-25 33,22 c 17,13 32,24 32,26 0,8 -11,1 -37,-23 z"
       id="path58"
       style="" />
    <path
       d="m 1455,1000 c -3,-6 1,-7 9,-4 18,7 21,14 7,14 -6,0 -13,-4 -16,-10 z"
       id="path60"
       style="" />
  </g>
</svg>
